HIERARCHY
ROOT Hip
{
	OFFSET	0.0000	0.0000	0.0000
	CHANNELS 6 Xposition Yposition Zposition Xrotation Yrotation Zrotation
	JOINT LowerSpine
	{
		OFFSET	0.0000	9.4421	-5.1095
		CHANNELS 3 Xrotation Yrotation Zrotation
		JOINT MiddleSpine
		{
			OFFSET	0.0000	8.6167	0.4501
			CHANNELS 3 Xrotation Yrotation Zrotation
			JOINT Chest
			{
				OFFSET	0.0000	10.6621	-2.3733
				CHANNELS 3 Xrotation Yrotation Zrotation
				JOINT Neck
				{
					OFFSET	0.0000	24.0266	-0.4997
					CHANNELS 3 Xrotation Yrotation Zrotation
					JOINT Head
					{
						OFFSET	0.0000	13.5681	3.6905
						CHANNELS 3 Xrotation Yrotation Zrotation
						End Site
						{
							OFFSET	0.0001	18.9582	0.5659
						}
					}
				}
				JOINT LClavicle
				{
					OFFSET	2.4257	23.1869	7.9440
					CHANNELS 3 Xrotation Yrotation Zrotation
					JOINT LShoulder
					{
						OFFSET	14.1712	3.3259	-5.3815
						CHANNELS 3 Xrotation Yrotation Zrotation
						JOINT LForearm
						{
							OFFSET	30.1025	-0.1069	-0.2608
							CHANNELS 3 Xrotation Yrotation Zrotation
							JOINT LHand
							{
								OFFSET	25.1118	0.0729	-0.1504
								CHANNELS 3 Xrotation Yrotation Zrotation
								JOINT LFinger1
								{
									OFFSET	9.7326	0.8511	2.7032
									CHANNELS 3 Xrotation Yrotation Zrotation
									JOINT LFinger11
									{
										OFFSET	3.6405	-0.8877	0.6415
										CHANNELS 3 Xrotation Yrotation Zrotation
										JOINT LFinger12
										{
											OFFSET	2.4853	-0.6063	0.4381
											CHANNELS 3 Xrotation Yrotation Zrotation
											End Site
											{
												OFFSET	1.7685	-0.5279	0.2869
											}
										}
									}
								}
								JOINT LFinger2
								{
									OFFSET	9.8779	0.9829	0.2354
									CHANNELS 3 Xrotation Yrotation Zrotation
									JOINT LFinger21
									{
										OFFSET	4.5013	0.0125	-0.0266
										CHANNELS 3 Xrotation Yrotation Zrotation
										JOINT LFinger22
										{
											OFFSET	2.4949	0.0076	-0.0152
											CHANNELS 3 Xrotation Yrotation Zrotation
											End Site
											{
												OFFSET	2.2410	-0.1582	0.0030
											}
										}
									}
								}
								JOINT LFinger3
								{
									OFFSET	9.3613	0.6559	-2.2147
									CHANNELS 3 Xrotation Yrotation Zrotation
									JOINT LFinger31
									{
										OFFSET	4.0844	-0.2068	-0.2557
										CHANNELS 3 Xrotation Yrotation Zrotation
										JOINT LFinger32
										{
											OFFSET	2.3274	-0.1171	-0.1463
											CHANNELS 3 Xrotation Yrotation Zrotation
											End Site
											{
												OFFSET	2.0579	-0.2530	-0.0973
											}
										}
									}
								}
								JOINT LFinger4
								{
									OFFSET	8.6869	-0.6602	-3.8249
									CHANNELS 3 Xrotation Yrotation Zrotation
									JOINT LFinger41
									{
										OFFSET	2.5123	-0.5239	-0.6935
										CHANNELS 3 Xrotation Yrotation Zrotation
										JOINT LFinger42
										{
											OFFSET	1.8423	-0.3837	-0.5089
											CHANNELS 3 Xrotation Yrotation Zrotation
											End Site
											{
												OFFSET	1.6352	-0.4493	-0.3751
											}
										}
									}
								}
								JOINT LFinger0
								{
									OFFSET	2.0132	-1.5239	1.5262
									CHANNELS 3 Xrotation Yrotation Zrotation
									JOINT LFinger01
									{
										OFFSET	3.7485	-1.2312	2.8262
										CHANNELS 3 Xrotation Yrotation Zrotation
										JOINT LFinger02
										{
											OFFSET	2.4684	-0.8832	1.7784
											CHANNELS 3 Xrotation Yrotation Zrotation
											End Site
											{
												OFFSET	1.8151	-0.6248	1.2429
											}
										}
									}
								}
							}
						}
					}
				}
				JOINT RClavicle
				{
					OFFSET	-2.4257	23.1869	7.9440
					CHANNELS 3 Xrotation Yrotation Zrotation
					JOINT RShoulder
					{
						OFFSET	-14.1737	3.3264	-5.3824
						CHANNELS 3 Xrotation Yrotation Zrotation
						JOINT RForearm
						{
							OFFSET	-30.1025	-0.1069	-0.2608
							CHANNELS 3 Xrotation Yrotation Zrotation
							JOINT RHand
							{
								OFFSET	-25.1118	0.0729	-0.1504
								CHANNELS 3 Xrotation Yrotation Zrotation
								JOINT RFinger1
								{
									OFFSET	-9.7326	0.8512	2.7032
									CHANNELS 3 Xrotation Yrotation Zrotation
									JOINT RFinger11
									{
										OFFSET	-3.6405	-0.8877	0.6415
										CHANNELS 3 Xrotation Yrotation Zrotation
										JOINT RFinger12
										{
											OFFSET	-2.4853	-0.6063	0.4381
											CHANNELS 3 Xrotation Yrotation Zrotation
											End Site
											{
												OFFSET	-1.7685	-0.5279	0.2869
											}
										}
									}
								}
								JOINT RFinger2
								{
									OFFSET	-9.8779	0.9830	0.2354
									CHANNELS 3 Xrotation Yrotation Zrotation
									JOINT RFinger21
									{
										OFFSET	-4.5013	0.0126	-0.0266
										CHANNELS 3 Xrotation Yrotation Zrotation
										JOINT RFinger22
										{
											OFFSET	-2.4949	0.0076	-0.0152
											CHANNELS 3 Xrotation Yrotation Zrotation
											End Site
											{
												OFFSET	-2.2410	-0.1582	0.0030
											}
										}
									}
								}
								JOINT RFinger3
								{
									OFFSET	-9.3613	0.6559	-2.2147
									CHANNELS 3 Xrotation Yrotation Zrotation
									JOINT RFinger31
									{
										OFFSET	-4.0844	-0.2068	-0.2557
										CHANNELS 3 Xrotation Yrotation Zrotation
										JOINT RFinger32
										{
											OFFSET	-2.3274	-0.1171	-0.1463
											CHANNELS 3 Xrotation Yrotation Zrotation
											End Site
											{
												OFFSET	-2.0579	-0.2530	-0.0973
											}
										}
									}
								}
								JOINT RFinger4
								{
									OFFSET	-8.6869	-0.6602	-3.8249
									CHANNELS 3 Xrotation Yrotation Zrotation
									JOINT RFinger41
									{
										OFFSET	-2.5123	-0.5239	-0.6935
										CHANNELS 3 Xrotation Yrotation Zrotation
										JOINT RFinger42
										{
											OFFSET	-1.8423	-0.3837	-0.5089
											CHANNELS 3 Xrotation Yrotation Zrotation
											End Site
											{
												OFFSET	-1.6352	-0.4493	-0.3751
											}
										}
									}
								}
								JOINT RFinger0
								{
									OFFSET	-2.0132	-1.5239	1.5262
									CHANNELS 3 Xrotation Yrotation Zrotation
									JOINT RFinger01
									{
										OFFSET	-3.7485	-1.2312	2.8262
										CHANNELS 3 Xrotation Yrotation Zrotation
										JOINT RFinger02
										{
											OFFSET	-2.4684	-0.8832	1.7784
											CHANNELS 3 Xrotation Yrotation Zrotation
											End Site
											{
												OFFSET	-1.8151	-0.6248	1.2429
											}
										}
									}
								}
							}
						}
					}
				}
			}
		}
	}
	JOINT RThigh
	{
		OFFSET	-10.1007	4.2681	-0.8326
		CHANNELS 3 Xrotation Yrotation Zrotation
		JOINT RShin
		{
			OFFSET	-0.8082	-43.9335	0.0000
			CHANNELS 3 Xrotation Yrotation Zrotation
			JOINT RFoot
			{
				OFFSET	0.0000	-43.1400	0.0000
				CHANNELS 3 Xrotation Yrotation Zrotation
				JOINT RToe
				{
					OFFSET	0.0000	-4.7415	9.9150
					CHANNELS 3 Xrotation Yrotation Zrotation
					End Site
					{
						OFFSET	0.0000	0.0000	6.6516
					}
				}
			}
		}
	}
	JOINT LThigh
	{
		OFFSET	10.1006	4.2684	-0.8326
		CHANNELS 3 Xrotation Yrotation Zrotation
		JOINT LShin
		{
			OFFSET	0.8083	-43.9338	0.0000
			CHANNELS 3 Xrotation Yrotation Zrotation
			JOINT LFoot
			{
				OFFSET	0.0000	-43.1400	0.0000
				CHANNELS 3 Xrotation Yrotation Zrotation
				JOINT LToe
				{
					OFFSET	0.0000	-4.7415	9.9151
					CHANNELS 3 Xrotation Yrotation Zrotation
					End Site
					{
						OFFSET	0.0000	0.0000	6.6516
					}
				}
			}
		}
	}
}
MOTION
Frames:	7
Frame Time: 0.0333333000
	-30.7155	90.7014	37.0769	-9.505165	-24.881070	-4.322206	0.000000	0.000000	0.000000	0.836464	-0.297361	1.216578	2.811759	-0.920477	4.070855	0.000000	0.000000	0.000000	0.000000	0.000000	0.000000	0.000000	0.000000	-2.672819	-0.536629	-5.745472	-10.440240	-14.430350	-10.292800	16.147790	0.000000	0.000000	0.000000	0.000000	0.000000	0.000000	0.000000	0.000000	0.000000	0.000000	0.000000	0.000000	0.000000	0.000000	0.000000	0.000000	0.000000	0.000000	0.000000	0.000000	0.000000	0.000000	0.000000	0.000000	0.000000	0.000000	0.000000	0.000000	0.000000	0.000000	0.000000	0.000000	0.000000	0.000000	0.000000	0.000000	0.000000	0.000000	0.000000	0.000000	0.000000	0.000000	0.000000	0.000000	0.000000	0.000000	0.000000	0.000000	0.000000	0.000000	0.439613	-0.038676	2.918834	1.507427	-8.076017	10.496860	-9.338012	0.000000	0.000000	0.000000	0.000000	0.000000	0.000000	0.000000	0.000000	0.000000	0.000000	0.000000	0.000000	0.000000	0.000000	0.000000	0.000000	0.000000	0.000000	0.000000	0.000000	0.000000	0.000000	0.000000	0.000000	0.000000	0.000000	0.000000	0.000000	0.000000	0.000000	0.000000	0.000000	0.000000	0.000000	0.000000	0.000000	0.000000	0.000000	0.000000	0.000000	0.000000	0.000000	0.000000	0.000000	0.000000	0.000000	0.000000	0.000000	15.611230	-0.456997	-3.330132	2.207050	0.064636	3.392906	-0.655219	2.592203	1.395133	0.000000	0.000000	0.000000	13.690810	-0.984189	-1.965194	8.549184	-0.833931	0.137962	-2.643042	15.572480	7.913233	0.000000	0.000000	0.000000
	-30.9976	90.6539	36.9694	-9.112858	-25.249430	-4.455624	0.000000	0.000000	0.000000	0.691237	-0.230779	1.270523	2.323792	-0.712378	4.247341	0.000000	0.000000	0.000000	0.000000	0.000000	0.000000	0.000000	0.000000	-2.212858	-1.263492	-6.752352	-8.665286	-11.602890	-3.890447	13.121350	0.000000	0.000000	0.000000	0.000000	0.000000	0.000000	0.000000	0.000000	0.000000	0.000000	0.000000	0.000000	0.000000	0.000000	0.000000	0.000000	0.000000	0.000000	0.000000	0.000000	0.000000	0.000000	0.000000	0.000000	0.000000	0.000000	0.000000	0.000000	0.000000	0.000000	0.000000	0.000000	0.000000	0.000000	0.000000	0.000000	0.000000	0.000000	0.000000	0.000000	0.000000	0.000000	0.000000	0.000000	0.000000	0.000000	0.000000	0.000000	0.000000	0.000000	0.422211	0.010223	3.145006	1.431068	-7.168145	9.008981	-8.282324	0.000000	0.000000	0.000000	0.000000	0.000000	0.000000	0.000000	0.000000	0.000000	0.000000	0.000000	0.000000	0.000000	0.000000	0.000000	0.000000	0.000000	0.000000	0.000000	0.000000	0.000000	0.000000	0.000000	0.000000	0.000000	0.000000	0.000000	0.000000	0.000000	0.000000	0.000000	0.000000	0.000000	0.000000	0.000000	0.000000	0.000000	0.000000	0.000000	0.000000	0.000000	0.000000	0.000000	0.000000	0.000000	0.000000	0.000000	0.000000	15.157240	-0.387277	-2.908060	2.516301	0.066020	3.109039	-0.666359	1.213793	0.721960	0.000000	0.000000	0.000000	13.437190	-0.161205	-1.827920	8.250763	-0.038848	0.017144	-3.688317	13.108300	6.835236	0.000000	0.000000	0.000000
	-30.9634	90.5570	36.9587	-8.813652	-23.545080	-3.437958	0.000000	0.000000	0.000000	0.512539	-0.450713	0.938489	1.736640	-1.468993	3.144679	0.000000	0.000000	0.000000	0.000000	0.000000	0.000000	0.000000	0.000000	-2.288190	-2.103555	-7.540177	-9.083365	-12.859530	-5.469298	14.460770	0.000000	0.000000	0.000000	0.000000	0.000000	0.000000	0.000000	0.000000	0.000000	0.000000	0.000000	0.000000	0.000000	0.000000	0.000000	0.000000	0.000000	0.000000	0.000000	0.000000	0.000000	0.000000	0.000000	0.000000	0.000000	0.000000	0.000000	0.000000	0.000000	0.000000	0.000000	0.000000	0.000000	0.000000	0.000000	0.000000	0.000000	0.000000	0.000000	0.000000	0.000000	0.000000	0.000000	0.000000	0.000000	0.000000	0.000000	0.000000	0.000000	0.000000	0.710146	0.040530	2.160820	2.603203	-8.346033	10.576220	-9.575047	0.000000	0.000000	0.000000	0.000000	0.000000	0.000000	0.000000	0.000000	0.000000	0.000000	0.000000	0.000000	0.000000	0.000000	0.000000	0.000000	0.000000	0.000000	0.000000	0.000000	0.000000	0.000000	0.000000	0.000000	0.000000	0.000000	0.000000	0.000000	0.000000	0.000000	0.000000	0.000000	0.000000	0.000000	0.000000	0.000000	0.000000	0.000000	0.000000	0.000000	0.000000	0.000000	0.000000	0.000000	0.000000	0.000000	0.000000	0.000000	15.619450	-0.444375	-3.237563	1.366851	0.038069	3.229884	-1.177969	0.039507	0.165660	0.000000	0.000000	0.000000	12.769480	-0.096998	-1.768462	9.165706	0.035110	0.006929	-3.582565	9.899522	5.128044	0.000000	0.000000	0.000000
	-31.1060	90.4193	36.8192	-8.296013	-22.851420	-2.741646	0.000000	0.000000	0.000000	0.313621	-0.583439	0.686322	1.070688	-1.928758	2.296305	0.000000	0.000000	0.000000	0.000000	0.000000	0.000000	0.000000	0.000000	-2.236670	-2.806933	-6.994423	-8.943993	-13.015760	-7.988008	14.420770	0.000000	0.000000	0.000000	0.000000	0.000000	0.000000	0.000000	0.000000	0.000000	0.000000	0.000000	0.000000	0.000000	0.000000	0.000000	0.000000	0.000000	0.000000	0.000000	0.000000	0.000000	0.000000	0.000000	0.000000	0.000000	0.000000	0.000000	0.000000	0.000000	0.000000	0.000000	0.000000	0.000000	0.000000	0.000000	0.000000	0.000000	0.000000	0.000000	0.000000	0.000000	0.000000	0.000000	0.000000	0.000000	0.000000	0.000000	0.000000	0.000000	0.000000	0.995885	0.068001	1.933178	3.750850	-9.483141	11.627380	-10.828300	0.000000	0.000000	0.000000	0.000000	0.000000	0.000000	0.000000	0.000000	0.000000	0.000000	0.000000	0.000000	0.000000	0.000000	0.000000	0.000000	0.000000	0.000000	0.000000	0.000000	0.000000	0.000000	0.000000	0.000000	0.000000	0.000000	0.000000	0.000000	0.000000	0.000000	0.000000	0.000000	0.000000	0.000000	0.000000	0.000000	0.000000	0.000000	0.000000	0.000000	0.000000	0.000000	0.000000	0.000000	0.000000	0.000000	0.000000	0.000000	15.410410	-0.454595	-3.361487	0.937637	0.028150	3.333252	-2.773384	-1.545852	-0.653861	0.000000	0.000000	0.000000	12.015280	0.073129	-1.373665	9.975656	0.177721	-0.016163	-4.041923	7.040040	3.676088	0.000000	0.000000	0.000000
	-31.3835	90.2891	36.5824	-7.788812	-23.158370	-2.397870	0.000000	0.000000	0.000000	0.186321	-0.591633	0.547739	0.634327	-1.963518	1.813475	0.000000	0.000000	0.000000	0.000000	0.000000	0.000000	0.000000	0.000000	-2.067175	-3.428418	-5.741559	-8.285092	-11.934030	-10.114660	12.935710	0.000000	0.000000	0.000000	0.000000	0.000000	0.000000	0.000000	0.000000	0.000000	0.000000	0.000000	0.000000	0.000000	0.000000	0.000000	0.000000	0.000000	0.000000	0.000000	0.000000	0.000000	0.000000	0.000000	0.000000	0.000000	0.000000	0.000000	0.000000	0.000000	0.000000	0.000000	0.000000	0.000000	0.000000	0.000000	0.000000	0.000000	0.000000	0.000000	0.000000	0.000000	0.000000	0.000000	0.000000	0.000000	0.000000	0.000000	0.000000	0.000000	0.000000	1.251674	0.083549	2.229800	4.763624	-10.533550	12.227410	-11.990950	0.000000	0.000000	0.000000	0.000000	0.000000	0.000000	0.000000	0.000000	0.000000	0.000000	0.000000	0.000000	0.000000	0.000000	0.000000	0.000000	0.000000	0.000000	0.000000	0.000000	0.000000	0.000000	0.000000	0.000000	0.000000	0.000000	0.000000	0.000000	0.000000	0.000000	0.000000	0.000000	0.000000	0.000000	0.000000	0.000000	0.000000	0.000000	0.000000	0.000000	0.000000	0.000000	0.000000	0.000000	0.000000	0.000000	0.000000	0.000000	14.703780	-0.428076	-3.318422	1.266703	0.037585	3.346953	-4.916677	-2.845070	-1.403337	0.000000	0.000000	0.000000	11.506100	0.246390	-0.971891	10.088970	0.313884	-0.039083	-4.644267	5.005999	2.651083	0.000000	0.000000	0.000000
	-31.5358	90.1919	36.4194	-7.492300	-23.553730	-2.279021	0.000000	0.000000	0.000000	0.128554	-0.530975	0.472914	0.454805	-1.767418	1.601234	0.000000	0.000000	0.000000	0.000000	0.000000	0.000000	0.000000	0.000000	-1.851634	-4.112574	-5.389534	-7.472154	-10.620140	-9.975243	11.368890	0.000000	0.000000	0.000000	0.000000	0.000000	0.000000	0.000000	0.000000	0.000000	0.000000	0.000000	0.000000	0.000000	0.000000	0.000000	0.000000	0.000000	0.000000	0.000000	0.000000	0.000000	0.000000	0.000000	0.000000	0.000000	0.000000	0.000000	0.000000	0.000000	0.000000	0.000000	0.000000	0.000000	0.000000	0.000000	0.000000	0.000000	0.000000	0.000000	0.000000	0.000000	0.000000	0.000000	0.000000	0.000000	0.000000	0.000000	0.000000	0.000000	0.000000	1.411382	0.116908	2.236974	5.385673	-11.175070	12.581280	-12.701370	0.000000	0.000000	0.000000	0.000000	0.000000	0.000000	0.000000	0.000000	0.000000	0.000000	0.000000	0.000000	0.000000	0.000000	0.000000	0.000000	0.000000	0.000000	0.000000	0.000000	0.000000	0.000000	0.000000	0.000000	0.000000	0.000000	0.000000	0.000000	0.000000	0.000000	0.000000	0.000000	0.000000	0.000000	0.000000	0.000000	0.000000	0.000000	0.000000	0.000000	0.000000	0.000000	0.000000	0.000000	0.000000	0.000000	0.000000	0.000000	14.194810	-0.407478	-3.269430	1.566243	0.045280	3.331776	-6.148865	-3.264917	-1.668976	0.000000	0.000000	0.000000	11.364750	0.233796	-0.903319	9.491536	0.286050	-0.033809	-5.067931	4.026292	2.150477	0.000000	0.000000	0.000000
	-31.4249	90.0453	36.4143	-7.285785	-23.506480	-2.257785	0.000000	0.000000	0.000000	0.086995	-0.483604	0.462066	0.307080	-1.609583	1.547312	0.000000	0.000000	0.000000	0.000000	0.000000	0.000000	0.000000	0.000000	-1.679935	-4.877023	-6.052378	-6.896431	-9.989180	-8.417459	10.714350	0.000000	0.000000	0.000000	0.000000	0.000000	0.000000	0.000000	0.000000	0.000000	0.000000	0.000000	0.000000	0.000000	0.000000	0.000000	0.000000	0.000000	0.000000	0.000000	0.000000	0.000000	0.000000	0.000000	0.000000	0.000000	0.000000	0.000000	0.000000	0.000000	0.000000	0.000000	0.000000	0.000000	0.000000	0.000000	0.000000	0.000000	0.000000	0.000000	0.000000	0.000000	0.000000	0.000000	0.000000	0.000000	0.000000	0.000000	0.000000	0.000000	0.000000	1.377058	0.182516	1.770103	5.298356	-10.948840	12.493600	-12.447460	0.000000	0.000000	0.000000	0.000000	0.000000	0.000000	0.000000	0.000000	0.000000	0.000000	0.000000	0.000000	0.000000	0.000000	0.000000	0.000000	0.000000	0.000000	0.000000	0.000000	0.000000	0.000000	0.000000	0.000000	0.000000	0.000000	0.000000	0.000000	0.000000	0.000000	0.000000	0.000000	0.000000	0.000000	0.000000	0.000000	0.000000	0.000000	0.000000	0.000000	0.000000	0.000000	0.000000	0.000000	0.000000	0.000000	0.000000	0.000000	14.054330	-0.400718	-3.249829	1.572513	0.045705	3.338603	-6.632964	-3.127127	-1.612050	0.000000	0.000000	0.000000	11.323440	0.092100	-1.020110	8.982388	0.149041	-0.010830	-5.924757	3.749126	2.039286	0.000000	0.000000	0.000000
